<svg className="cart" aria-hidden="true" focusable="false" role="presentation" viewBox="0 0 20.581 24" width="20.581" height="24">
  <path d="M10.29 0a3.656 3.656 0 00-3.857 3.429V6H2.576a.857.857 0 00-.857.767L.005 23.053A.857.857 0 00.862 24h18.857a.857.857 0 00.857-.947L18.862 6.767A.857.857 0 0018.005 6h-3.857V3.429A3.656 3.656 0 0010.29 0zM8.148 3.429a1.965 1.965 0 012.143-1.714 1.965 1.965 0 012.143 1.714V6H8.148zm9.086 4.286l1.534 14.571H1.811L3.345 7.715h3.086v1.714a.857.857 0 101.714 0V7.714h4.286v1.714a.857.857 0 101.714 0V7.714z" fill="#fff"></path>
</svg>
