<svg width="29" height="25.039" viewBox="0 0 29 25.039">
  <path d="M29.815,13.99,24.761,9.181a.443.443,0,0,0-.172-.1L18.712,7.226a.444.444,0,0,0-.4.066,5.44,5.44,0,0,1-2.859.964A3.345,3.345,0,0,1,13.1,7.3a.444.444,0,0,0-.43-.1L6.584,9.017a.447.447,0,0,0-.176.1L1.093,14.082a.443.443,0,0,0-.029.618l3.219,3.622a.442.442,0,0,0,.6.056l1.1-.851V31.776a.443.443,0,0,0,.443.443H23.844a.443.443,0,0,0,.443-.443V17.442l1.367,1.023a.443.443,0,0,0,.587-.05l3.59-3.8A.443.443,0,0,0,29.815,13.99ZM15.456,9.142a6.13,6.13,0,0,0,3-.89,3.579,3.579,0,0,1-.912,2.483,2.488,2.488,0,0,1-1.872.632c-2.347-.064-2.668-2.292-2.71-3.033A4.141,4.141,0,0,0,15.456,9.142Zm10.412,8.377L24.11,16.2a.443.443,0,0,0-.708.355V31.333H6.87V16.624a.443.443,0,0,0-.714-.35L4.67,17.424l-2.657-2.99,4.925-4.6L12.078,8.3c.038,1.451.806,3.875,3.575,3.95l.134,0a3.281,3.281,0,0,0,2.379-.884A4.482,4.482,0,0,0,19.34,8.353l4.885,1.54,4.659,4.434Z" transform="translate(-0.952 -7.18)" />
</svg>
