<svg width="29" height="24.016" viewBox="0 0 29 24.016">
  <g transform="translate(-1 -10)">
    <path d="M29.877,23.207,26.8,17.9a.482.482,0,0,0-.418-.2H20.827V11.351A1.4,1.4,0,0,0,19.3,10H2.646A1.5,1.5,0,0,0,1,11.351V28.765c0,.752.753,1.949,1.646,1.949H5.18a3.528,3.528,0,0,0,7.041,0H19.3c.03,0,.06-.005.09-.008a3.531,3.531,0,0,0,7.054-.218c.055,0,.114.007.167.007,2.662,0,3.285-1.721,3.309-1.8.013-.042.084-.086.084-.13v-5.14C30,23.35,29.915,23.274,29.877,23.207ZM8.7,33.123a2.645,2.645,0,1,1,2.645-2.645A2.648,2.648,0,0,1,8.7,33.123Zm3.47-3.3a3.53,3.53,0,0,0-6.94,0H2.646c-.261,0-.759-.634-.759-1.061V11.351c0-.316.453-.463.759-.463H19.3c.066,0,.643.013.643.463v17a.445.445,0,0,0,.034.171,3.514,3.514,0,0,0-.529,1.269.4.4,0,0,1-.149.039Zm10.737,3.3a2.645,2.645,0,1,1,2.645-2.645A2.648,2.648,0,0,1,22.908,33.128Zm6.2-4.643A2.851,2.851,0,0,1,26.388,29.6a3.58,3.58,0,0,0-5.561-1.964V18.582h5.3l2.985,4.963" />
  </g>
</svg>
