<?xml version="1.0" standalone="no"?>
<!DOCTYPE svg PUBLIC "-//W3C//DTD SVG 20010904//EN"
 "http://www.w3.org/TR/2001/REC-SVG-20010904/DTD/svg10.dtd">
<svg version="1.0" xmlns="http://www.w3.org/2000/svg"
 width="300.000000pt" height="304.000000pt" viewBox="0 0 300.000000 304.000000"
 preserveAspectRatio="xMidYMid meet">
<metadata>
Created by potrace 1.10, written by Peter Selinger 2001-2011
</metadata>
<g transform="translate(0.000000,304.000000) scale(0.100000,-0.100000)"
fill="#000000" stroke="none">
<path d="M910 1988 c-93 -95 -170 -179 -170 -188 0 -22 221 -240 245 -240 10
0 30 11 44 24 l26 25 -3 -334 c-3 -325 -2 -335 18 -355 20 -20 30 -20 433 -20
357 0 416 2 435 16 l22 15 0 341 0 341 21 -27 c11 -14 30 -26 42 -26 29 0 247
217 247 246 0 12 -61 81 -168 187 l-168 167 -151 0 c-133 0 -152 -2 -166 -18
-10 -10 -17 -30 -17 -44 0 -40 -45 -78 -92 -78 -47 0 -98 43 -98 84 0 50 -18
56 -180 56 l-149 0 -171 -172z m463 90 c29 -60 80 -98 130 -98 55 0 96 28 128
87 l26 48 128 3 128 3 153 -153 c85 -84 154 -159 154 -166 0 -21 -160 -182
-188 -189 -13 -3 -29 0 -35 6 -18 18 -45 13 -61 -11 -14 -19 -16 -68 -16 -328
0 -168 -4 -311 -9 -318 -11 -18 -801 -18 -813 1 -4 6 -8 150 -8 318 0 281 -2
309 -18 329 -17 21 -21 22 -55 9 l-37 -13 -95 94 c-52 52 -95 99 -95 105 0 6
69 79 154 163 l153 153 129 -3 129 -3 18 -37z"/>
<path d="M1420 1811 c-86 -28 -160 -91 -202 -171 -19 -38 -23 -60 -23 -140 0
-114 21 -165 97 -236 154 -144 384 -106 493 81 90 153 25 357 -140 443 -38 19
-68 26 -125 28 -41 2 -86 0 -100 -5z m182 -47 c61 -20 123 -75 155 -138 38
-73 38 -179 1 -252 -31 -60 -84 -109 -147 -137 -64 -28 -181 -21 -244 16 -174
102 -191 348 -33 468 27 20 63 41 80 47 48 15 137 14 188 -4z"/>
<path d="M1418 1670 c-70 -37 -114 -125 -102 -202 4 -21 9 -38 11 -38 2 0 33
21 69 46 l64 46 0 84 c0 46 -1 84 -2 84 -2 -1 -20 -10 -40 -20z m2 -96 c0 -24
-31 -64 -50 -64 -16 0 -11 33 10 68 22 36 40 35 40 -4z"/>
<path d="M1550 1605 l0 -83 66 -47 c37 -25 68 -44 71 -42 12 12 13 78 3 117
-13 48 -79 122 -119 133 -20 5 -21 2 -21 -78z m79 -21 c21 -26 29 -74 13 -74
-20 0 -52 43 -52 70 0 37 12 38 39 4z"/>
<path d="M1422 1385 c-18 -12 -35 -25 -38 -28 -3 -2 11 -15 31 -27 20 -12 38
-20 41 -17 3 3 4 25 2 50 l-3 45 -33 -23z"/>
<path d="M1550 1360 c0 -27 3 -50 8 -50 4 0 22 10 41 21 l35 21 -25 19 c-56
45 -59 44 -59 -11z"/>
</g>
</svg>
